<svg width="92" height="92" viewBox="0 0 92 92" fill="none" xmlns="http://www.w3.org/2000/svg">
<path d="M41.6643 0.0932617C30.2272 1.16833 19.6007 6.4652 11.8574 14.9507C4.1141 23.4363 -0.19064 34.5019 -0.217224 45.9894C-0.190729 57.4769 4.11397 68.5426 11.8573 77.0282C19.6006 85.5138 30.2271 90.8108 41.6643 91.8858V80.8445C33.208 79.7476 25.4389 75.6138 19.8047 69.2132C14.1704 62.8126 11.0554 54.5819 11.04 46.0548C11.0555 37.5278 14.1706 29.2972 19.8048 22.8967C25.439 16.4962 33.208 12.3624 41.6643 11.2655V0.0932617ZM52.4778 0.248005V11.5334C60.565 13.0052 67.8804 17.2651 73.1518 23.5723C78.4232 29.8795 81.3171 37.8348 81.3302 46.0548C81.328 54.2828 78.4391 62.2492 73.1667 68.5661C67.8944 74.8829 60.5728 79.1496 52.4778 80.6229V91.7311C63.4968 90.1682 73.5815 84.6806 80.8782 76.277C88.1748 67.8735 92.1932 57.1187 92.1947 45.9894C92.1931 34.8601 88.1747 24.1054 80.878 15.7019C73.5814 7.29847 63.4968 1.81095 52.4778 0.248005Z" fill="url(#paint0_linear_7_148)"/>
<path d="M46.2082 21.1255C42.9508 21.1255 39.7252 21.7671 36.7157 23.0136C33.7062 24.2602 30.9717 26.0873 28.6683 28.3907C26.3649 30.6941 24.5378 33.4286 23.2912 36.4381C22.0446 39.4476 21.403 42.6731 21.403 45.9306C21.4147 52.3599 23.9223 58.5336 28.3971 63.1501C32.872 67.7666 38.9645 70.4653 45.3904 70.6772L45.3898 70.6777H61.4466L69.9953 70.6382L62.2281 64.8448C64.9777 62.5189 67.1879 59.6221 68.705 56.3558C70.2221 53.0895 71.0098 49.532 71.0133 45.9306C71.0129 42.6552 70.3638 39.4124 69.1035 36.3892C67.8431 33.366 65.9966 30.6224 63.6703 28.3166L57.0457 35C58.5165 36.445 59.6862 38.1674 60.4871 40.0674C61.2879 41.9675 61.7041 44.0075 61.7114 46.0694C61.7114 48.1175 61.308 50.1455 60.5242 52.0377C59.7405 53.9298 58.5917 55.6491 57.1435 57.0973C55.6953 58.5455 53.976 59.6943 52.0839 60.478C50.1917 61.2618 48.1637 61.6652 46.1156 61.6652C41.9794 61.6652 38.0125 60.022 35.0878 57.0973C32.163 54.1725 30.5199 50.2057 30.5199 46.0694C30.5199 41.9332 32.163 37.9663 35.0878 35.0416C38.0125 32.1168 41.9794 30.4737 46.1156 30.4736C48.1292 30.4849 50.1215 30.8861 51.9825 31.6549L58.9355 24.6401C55.0885 22.3402 50.6903 21.1257 46.2082 21.1255Z" fill="url(#paint1_linear_7_148)"/>
<defs>
<linearGradient id="paint0_linear_7_148" x1="25.6986" y1="1.00708" x2="69.796" y2="86.8995" gradientUnits="userSpaceOnUse">
<stop stop-color="#F3C836"/>
<stop offset="1" stop-color="#E59C2D"/>
</linearGradient>
<linearGradient id="paint1_linear_7_148" x1="25.2963" y1="1.22612" x2="69.8692" y2="87.3079" gradientUnits="userSpaceOnUse">
<stop stop-color="#F3C836"/>
<stop offset="1" stop-color="#E59C2D"/>
</linearGradient>
</defs>
</svg>
